# xmcd
#
# Track frame offsets:
#	150
#	20364
#	40669
#	60648
#	76126
#	88666
#	100199
#	111659
#	127133
#	138704
#	150801
#	162734
#	179460
#
# Disc length: 2595 seconds
#
# Revision: 1
# Processed by: cddbd v1.5.1PL2 Copyright (c) Steve Scherf et al.
# Submitted via: dBpowerAMP V4.0
#
DISCID=ab0a210d
DTITLE=Anne Kirkpatrick - Showman's Daughter
DYEAR=2006
DGENRE=Country
TTITLE0=Showman's Daughter
TTITLE1=Drive Away
TTITLE2=Silos of Home
TTITLE3=Never Say Never
TTITLE4=Women Of the West
TTITLE5=Bluer Skies
TTITLE6=The Cunnamulla Fella
TTITLE7=Peppimenarti Cradle
TTITLE8=Goodbye
TTITLE9=Neverland
TTITLE10=When It's Lamplighting Time in the Valley
TTITLE11=When the Rain Tumbles Down in July
TTITLE12=One of a KInd
EXTD=
EXTT0=
EXTT1=
EXTT2=
EXTT3=
EXTT4=
EXTT5=
EXTT6=
EXTT7=
EXTT8=
EXTT9=
EXTT10=
EXTT11=
EXTT12=
PLAYORDER=
